# xmcd CD database file
#
# Track frame offsets:
#	150
#	14825
#	27817
#	39772
#	52292
#	67250
#	80302
#	92440
#	107500
#	121307
#	136167
#	149772
#	163687
#	176450
#	191602
#	202982
#	216712
#	231972
#	246532
#	257687
#	272430
#	286920
#	299440
#	313917
#	325957
#	338877
#
# Disc length: 4716 seconds
#
# Revision: 0
# Processed by: cddbd v1.4PL0 Copyright (c) Steve Scherf et al.
# Submitted via: CDex 1.50beta9
#
DISCID=95126a1a
DTITLE=Arne Domnerus - Arne Domnerus and His Orchestra with Rolf Ericsson
DYEAR=1950
DGENRE=Jazz
TTITLE0=What Shall I Say
TTITLE1=Barit
TTITLE2=I Cover the Waterfront
TTITLE3=Lullaby in Rhythm
TTITLE4=The Nearness of You
TTITLE5=Git Straight
TTITLE6=Jumpin' With Symphony Sid
TTITLE7=Strange Enchantment
TTITLE8=I Know That You Know
TTITLE9=Caravan
TTITLE10=Lillette
TTITLE11=Be My Love
TTITLE12=The Pipe
TTITLE13=Strike Up the Band
TTITLE14=On the Alamo
TTITLE15=Darn That Dream
TTITLE16=Boogie Blues
TTITLE17=Out of Nowhere
TTITLE18=Perdido
TTITLE19=Tenderly
TTITLE20=What a Kick
TTITLE21=You Can Count on Me
TTITLE22=Schooldays
TTITLE23=Any Time
TTITLE24=Party for Pres
TTITLE25=Car Rider
EXTD=YEAR: 1950
EXTT0=
EXTT1=
EXTT2=
EXTT3=
EXTT4=
EXTT5=
EXTT6=
EXTT7=
EXTT8=
EXTT9=
EXTT10=
EXTT11=
EXTT12=
EXTT13=
EXTT14=
EXTT15=
EXTT16=
EXTT17=
EXTT18=
EXTT19=
EXTT20=
EXTT21=
EXTT22=
EXTT23=
EXTT24=
EXTT25=
PLAYORDER=
